# xmcd
#
# Track frame offsets: 
#        150
#        21275
#        48322
#        64307
#        95302
#        121327
#        143087
#        196082
#        211957
#        270370
#        291472
#
# Disc length: 4077 seconds
#
# Revision: 1
# Processed by: cddbd v1.5.1PL2 Copyright (c) Steve Scherf et al.
# Submitted via: ExactAudioCopy v0.95a4
#
DISCID=a00feb0b
DTITLE=Blues Traveler - When the Lights Go Down - Disc 1
DYEAR=1994
DGENRE=Rock
TTITLE0=But Anyway
TTITLE1=Out of My Hands
TTITLE2=Gina
TTITLE3=Stand
TTITLE4=Love and Greed
TTITLE5=Crystal Flame 
TTITLE6=Mullin it Over 
TTITLE7=Crash Burn 
TTITLE8=Come Together 
TTITLE9=Good Bad Ugly 
TTITLE10=Wait and See 
EXTD=
EXTT0=
EXTT1=
EXTT2=
EXTT3=
EXTT4=
EXTT5=
EXTT6=
EXTT7=
EXTT8=
EXTT9=
EXTT10=
PLAYORDER=
